<?xml version="1.0" standalone="no"?><svg xmlns="http://www.w3.org/2000/svg" viewBox="0 0 1440 320"><path fill="#FF8C00" fill-opacity="1" d="M0,224L15,218.7C30,213,60,203,90,186.7C120,171,150,149,180,138.7C210,128,240,128,270,138.7C300,149,330,171,360,170.7C390,171,420,149,450,133.3C480,117,510,107,540,122.7C570,139,600,181,630,186.7C660,192,690,160,720,138.7C750,117,780,107,810,106.7C840,107,870,117,900,133.3C930,149,960,171,990,154.7C1020,139,1050,85,1080,80C1110,75,1140,117,1170,128C1200,139,1230,117,1260,90.7C1290,64,1320,32,1350,26.7C1380,21,1410,43,1425,53.3L1440,64L1440,0L1425,0C1410,0,1380,0,1350,0C1320,0,1290,0,1260,0C1230,0,1200,0,1170,0C1140,0,1110,0,1080,0C1050,0,1020,0,990,0C960,0,930,0,900,0C870,0,840,0,810,0C780,0,750,0,720,0C690,0,660,0,630,0C600,0,570,0,540,0C510,0,480,0,450,0C420,0,390,0,360,0C330,0,300,0,270,0C240,0,210,0,180,0C150,0,120,0,90,0C60,0,30,0,15,0L0,0Z"></path></svg>